<?xml version="1.0" encoding="UTF-8" standalone="no"?>
<!DOCTYPE svg PUBLIC "-//W3C//DTD SVG 1.1//EN" "http://www.w3.org/Graphics/SVG/1.1/DTD/svg11.dtd">
<!--Generator: Xara Designer (www.xara.com), SVG filter version: 6.7.0.0-->
<svg width="268.45pt" height="464.16pt" fill="none" fill-rule="evenodd" font-family="'Times New Roman'" font-size="16px" overflow="visible" stroke="#000000" stroke-linejoin="bevel" stroke-miterlimit="10" stroke-width=".501" style="font-variant-ligatures:none" version="1.1" viewBox="52.5 -800.96 268.45 464.16" xmlns="http://www.w3.org/2000/svg">
 <defs>
 <style type="text/css">
@font-face {
    font-family: "Segoe UI";
    font-style: normal;
    font-weight: 400;
    src: local("Segoe UI"), url(https://c.s-microsoft.com/static/fonts/segoe-ui/west-european/normal/latest.woff2) format("woff2");
}

@font-face {
    font-family: "Segoe UI";
    font-style: normal;
    font-weight: 700;
    src: local("Segoe UI Bold"), url(https://c.s-microsoft.com/static/fonts/segoe-ui/west-european/bold/latest.woff2) format("woff2");
}
</style>
  <filter id="filter1345" x="-.013357" y="-.0096341" width="1.033" height="1.0162" color-interpolation-filters="sRGB">
   <feFlood flood-color="rgb(0,0,0)" flood-opacity=".41961" result="flood"/>
   <feComposite in="flood" in2="SourceGraphic" operator="in" result="composite1"/>
   <feGaussianBlur in="composite1" result="blur" stdDeviation="1"/>
   <feOffset dx="1.3" dy="-1.3" result="offset"/>
   <feComposite in="SourceGraphic" in2="offset" result="composite2"/>
  </filter>
 </defs>
 <g transform="matrix(1 0 0 -1 -.00099835 -9.0902e-6)">
  <g id="Group">
   <g font-family="Segoe UI" font-size="9px">
    <rect x="52.878" y="713.63" width="77.998" height="86.958" fill="#c1e9ff" stroke="#85d5ff" stroke-linejoin="miter" stroke-width=".754"/>
    <text transform="matrix(1 0 0 -1 91.644 718.49)" fill="#000000" kerning="auto" stroke="none" stroke-linecap="round" stroke-linejoin="round" stroke-width=".375" xml:space="preserve"><tspan x="-12.366" y="0">Image</tspan></text>
   </g>
   <rect transform="rotate(90 -336.75 427.5)" x="-33.75" y="-33.749" width="67.501" height="67.498" fill="#23a9e0" stroke="none" stroke-linejoin="miter" stroke-width=".243"/>
   <g fill="#fff" fill-rule="nonzero" stroke="none" stroke-linecap="round" stroke-linejoin="round" stroke-width=".354">
    <path d="m71.219 774.34c-1.107 0-2.047 0.386-2.818 1.158-0.772 0.772-1.158 1.712-1.158 2.819 0 1.108 0.386 2.056 1.158 2.844 0.771 0.789 1.711 1.183 2.818 1.183 1.108 0 2.056-0.394 2.845-1.183 0.788-0.788 1.183-1.736 1.183-2.844 0-1.107-0.395-2.047-1.183-2.819-0.789-0.772-1.737-1.158-2.845-1.158zm-3.423-28.189c-1.61 0-2.911 0.503-3.901 1.51s-1.485 2.517-1.485 4.531c0 0.839 0.135 1.929 0.403 3.272l3.423 16.158h7.249l-3.625-17.115c-0.134-0.503-0.201-1.04-0.201-1.611 0-0.671 0.159-1.149 0.478-1.434 0.319-0.286 0.848-0.428 1.586-0.428 0.973 0 1.879 0.411 2.718 1.233s1.443 1.888 1.812 3.197h2.115c-1.242-3.625-2.836-6.083-4.783-7.375-1.946-1.292-3.876-1.938-5.789-1.938z"/>
    <path d="m82.952 746.16c-2.282 0-4.027 0.562-5.235 1.686-1.208 1.125-1.812 2.71-1.812 4.757 0 1.007 0.117 1.963 0.352 2.87l5.386 25.219 7.45 1.007-2.416-11.326c0.94 0.57 1.712 0.948 2.316 1.132 0.604 0.185 1.208 0.277 1.812 0.277 3.96 0 5.94-2.869 5.94-8.608 0-2.315-0.445-4.79-1.334-7.425-0.89-2.634-2.366-4.891-4.43-6.77s-4.74-2.819-8.029-2.819zm2.819 4.883c1.04 0 2.013 0.646 2.92 1.938 0.906 1.292 1.627 2.903 2.164 4.832 0.537 1.93 0.806 3.784 0.806 5.563 0 1.342-0.235 2.483-0.705 3.423-0.47 0.939-1.124 1.409-1.963 1.409-0.504 0-1.066-0.075-1.687-0.226s-1.048-0.378-1.283-0.68l-2.769-12.786c-0.101-0.403-0.151-0.789-0.151-1.158 0-1.543 0.889-2.315 2.668-2.315z"/>
    <path d="m105.29 746.16c-2.282 0-4.027 0.562-5.235 1.686-1.208 1.125-1.812 2.71-1.812 4.757 0 1.007 0.117 1.963 0.352 2.87l5.386 25.219 7.45 1.007-2.416-11.326c0.94 0.57 1.712 0.948 2.316 1.132 0.604 0.185 1.208 0.277 1.812 0.277 3.96 0 5.94-2.869 5.94-8.608 0-2.315-0.445-4.79-1.334-7.425-0.89-2.634-2.366-4.891-4.43-6.77s-4.74-2.819-8.029-2.819zm2.819 4.883c1.04 0 2.013 0.646 2.92 1.938 0.906 1.292 1.627 2.903 2.164 4.832 0.537 1.93 0.806 3.784 0.806 5.563 0 1.342-0.235 2.483-0.705 3.423-0.47 0.939-1.124 1.409-1.963 1.409-0.504 0-1.066-0.075-1.687-0.226s-1.048-0.378-1.283-0.68l-2.769-12.786c-0.101-0.403-0.151-0.789-0.151-1.158 0-1.543 0.889-2.315 2.668-2.315z"/>
   </g>
  </g>
  <path d="m109.12 763.85v-422.98h207.75v422.98z" fill="#efefef" filter="url(#filter1345)" stroke="#929292" stroke-linejoin="miter" stroke-width=".75"/>
  <g stroke="none">
   <rect x="111" y="678.41" width="204" height="15.75" fill="#fff" stroke-linejoin="miter"/>
   <text transform="matrix(1 0 0 -1 134.7 749.11)" fill="#000000" font-family="Segoe UI" font-size="9px" kerning="auto" stroke-linecap="round" stroke-linejoin="round" stroke-width=".375" xml:space="preserve"><tspan x="0" y="0" font-weight="bold">Open</tspan><tspan x="0" y="16.469999">Create a new video</tspan><tspan x="0" y="32.939999">Edit with Photos</tspan><tspan x="0" y="49.41">Edit with Paint 3D</tspan><tspan x="0" y="65.879997">Upload to ImgBB</tspan><tspan x="0" y="82.349998" letter-spacing="-.01em">Set as desktop background</tspan><tspan x="0" y="98.82">Edit</tspan><tspan x="0" y="115.29">Print</tspan><tspan x="0" y="137.00999">Rotate right</tspan><tspan x="0" y="153.48">Rotate left</tspan><tspan x="0" y="175.2">Cast to Device</tspan><tspan x="0" y="191.67">Scan with Microsoft Defender…</tspan><tspan x="0" y="208.14">Share</tspan><tspan x="0" y="224.61">Open with</tspan><tspan x="0" y="246.33">Give access to</tspan><tspan x="0" y="262.79999" letter-spacing="-.005em">Restore previous versions</tspan><tspan x="0" y="284.51999">Send to</tspan><tspan x="0" y="306.23999">Cut</tspan><tspan x="0" y="322.70999">Copy</tspan><tspan x="0" y="344.42999">Create shortcut</tspan><tspan x="0" y="360.89999">Delete</tspan><tspan x="0" y="377.37">Rename</tspan><tspan x="0" y="399.09">Properties</tspan></text>
   <path d="m124.69 541.66 0.688 0.687v-2.062h-8.25v6.875h0.687v-6.188h6.875zm-0.687 2.75c-0.459 0-0.907-0.046-1.346-0.137-0.438-0.091-0.862-0.226-1.27-0.403s-0.798-0.394-1.168-0.65c-0.371-0.256-0.713-0.547-1.029-0.873v0.688c0 0.444 0.058 0.871 0.172 1.281 0.115 0.41 0.277 0.793 0.486 1.149 0.21 0.357 0.46 0.681 0.752 0.972 0.292 0.292 0.616 0.543 0.972 0.752 0.357 0.21 0.74 0.372 1.15 0.486 0.41 0.115 0.837 0.172 1.281 0.172v2.063l3.781-3.782-3.781-3.781zm0.542 2.75c-0.2 0-0.388-2e-3 -0.564-6e-3 -0.175-3e-3 -0.349-0.015-0.521-0.035-0.172-0.019-0.344-0.052-0.515-0.096-0.172-0.045-0.355-0.107-0.548-0.186-0.312-0.128-0.601-0.293-0.868-0.494-0.266-0.2-0.504-0.428-0.714-0.684-0.209-0.257-0.387-0.534-0.532-0.833s-0.251-0.613-0.319-0.943c0.602 0.401 1.244 0.704 1.928 0.908s1.387 0.306 2.111 0.306h0.687v-1.09l2.122 2.121-2.122 2.122v-1.09z" fill="#000" fill-rule="nonzero"/>
   <g stroke-linejoin="miter">
    <rect x="117.07" y="554.39" width="11.999" height="11.999" fill="#1378d4" stroke-width=".669"/>
    <g fill="#fff" fill-rule="nonzero" stroke-width=".104">
     <path d="m123.45 565.72c-0.041 1e-3 -0.053-6e-3 -0.06-0.021v-4.733l4.669 0.017c0.047 0.055 0.059 0.48 0.054 1.937l-6e-3 1.483-0.119 6e-3c-1.397 0.045-2.16 0.243-3.005 0.783-0.281 0.178-0.339 0.207-0.547 0.295-0.239 0.096-0.498 0.167-0.758 0.207-0.116 0.016-0.187 0.025-0.228 0.026zm-0.768-4e-3c-0.037 0-0.153-0.013-0.26-0.033-0.481-0.081-0.82-0.215-1.233-0.484-0.437-0.283-0.723-0.419-1.172-0.551-0.431-0.13-1.16-0.225-1.804-0.239l-0.187-6e-3 -2e-3 -1.494c-4e-3 -1.073 0-1.559 0.018-1.72l0.023-0.223h4.68v4.747zm5.249-5.377c0-0.043-4.537-0.014-4.537-0.014l0.012-5.255c0.025 0 0.096 0.04 0.315 0.167 0.041 0.027 0.255 0.164 0.476 0.315 0.757 0.505 1.296 0.951 1.846 1.519 0.636 0.659 1.061 1.238 1.425 1.942 0.235 0.458 0.463 1.087 0.463 1.283zm-5.186-0.01-4.532-8e-3c-0.016-0.025 0.017-0.198 0.073-0.379 0.191-0.619 0.563-1.337 0.991-1.911 0.487-0.651 1.154-1.322 1.929-1.946 0.489-0.392 1.403-0.996 1.506-0.996z"/>
    </g>
   </g>
   <rect transform="rotate(90 -281.58 404.7)" x="-6" y="-6" width="12.001" height="12.001" fill="#23a9e0" stroke-linejoin="miter" stroke-width=".043"/>
   <g fill="#fff" fill-rule="nonzero" stroke-linecap="round" stroke-linejoin="round" stroke-width=".063">
    <path d="m119.66 688.07c-0.197 0-0.364 0.069-0.502 0.206-0.137 0.137-0.205 0.304-0.205 0.501s0.068 0.365 0.205 0.506c0.138 0.14 0.305 0.21 0.502 0.21 0.196 0 0.365-0.07 0.505-0.21 0.14-0.141 0.211-0.309 0.211-0.506s-0.071-0.364-0.211-0.501-0.309-0.206-0.505-0.206zm-0.609-5.012c-0.286 0-0.518 0.09-0.694 0.269s-0.264 0.447-0.264 0.805c0 0.149 0.024 0.343 0.072 0.582l0.609 2.873h1.288l-0.644-3.043c-0.024-0.09-0.036-0.185-0.036-0.286 0-0.12 0.028-0.205 0.085-0.256 0.057-0.05 0.151-0.076 0.282-0.076 0.173 0 0.334 0.073 0.483 0.22 0.149 0.146 0.257 0.335 0.323 0.568h0.375c-0.22-0.644-0.504-1.081-0.85-1.311s-0.689-0.345-1.029-0.345z"/>
    <path d="m121.74 683.06c-0.405 0-0.716 0.1-0.93 0.3-0.215 0.2-0.323 0.482-0.323 0.846 0 0.179 0.021 0.349 0.063 0.51l0.958 4.484 1.324 0.179-0.429-2.014c0.167 0.101 0.304 0.169 0.411 0.201 0.108 0.033 0.215 0.05 0.322 0.05 0.704 0 1.056-0.511 1.056-1.531 0-0.411-0.079-0.851-0.237-1.32-0.158-0.468-0.42-0.869-0.787-1.204-0.367-0.334-0.843-0.501-1.428-0.501zm0.501 0.868c0.185 0 0.358 0.115 0.52 0.345 0.161 0.23 0.289 0.516 0.384 0.859 0.096 0.343 0.144 0.673 0.144 0.989 0 0.239-0.042 0.442-0.126 0.609-0.083 0.167-0.2 0.25-0.349 0.25-0.089 0-0.189-0.013-0.3-0.04-0.11-0.027-0.186-0.067-0.228-0.121l-0.492-2.273c-0.018-0.072-0.027-0.14-0.027-0.206 0-0.274 0.158-0.412 0.474-0.412z"/>
    <path d="m125.72 683.06c-0.405 0-0.716 0.1-0.93 0.3-0.215 0.2-0.323 0.482-0.323 0.846 0 0.179 0.021 0.349 0.063 0.51l0.958 4.484 1.324 0.179-0.429-2.014c0.167 0.101 0.304 0.169 0.411 0.201 0.108 0.033 0.215 0.05 0.322 0.05 0.704 0 1.056-0.511 1.056-1.531 0-0.411-0.079-0.851-0.237-1.32-0.158-0.468-0.42-0.869-0.787-1.204-0.367-0.334-0.843-0.501-1.428-0.501zm0.501 0.868c0.185 0 0.358 0.115 0.52 0.345 0.161 0.23 0.289 0.516 0.384 0.859 0.096 0.343 0.144 0.673 0.144 0.989 0 0.239-0.042 0.442-0.126 0.609-0.083 0.167-0.2 0.25-0.349 0.25-0.089 0-0.189-0.013-0.3-0.04-0.11-0.027-0.186-0.067-0.228-0.121l-0.492-2.273c-0.018-0.072-0.027-0.14-0.027-0.206 0-0.274 0.158-0.412 0.474-0.412z"/>
   </g>
  </g>
  <g fill="none" stroke="#929292" stroke-linejoin="miter" stroke-width=".75">
   <path d="m117 587.58h192"/>
   <path d="m117 625.7h192"/>
   <path d="m117 625.7h192"/>
   <path d="m117 516.35h192"/>
   <path d="m117 477.95h192"/>
   <path d="m117 418.14h192"/>
   <path d="m117 363.35h192"/>
   <path d="m117 456.35h192"/>
  </g>
  <g fill="#000" fill-rule="nonzero" stroke="none">
   <path d="m303.71 463.16 4.428 4.432-4.428 4.433 0.428 0.428 4.866-4.861-4.866-4.861z"/>
   <path d="m303.71 501.38 4.428 4.432-4.428 4.433 0.428 0.428 4.866-4.861-4.866-4.861z"/>
   <path d="m303.68 523.16 4.428 4.432-4.428 4.433 0.428 0.428 4.866-4.861-4.866-4.861z"/>
   <path d="m303.68 572.66 4.428 4.432-4.428 4.433 0.428 0.428 4.866-4.861-4.866-4.861z"/>
  </g>
  <path d="m273.24 684.34v-12.658l3.072 3.015 1.803-3.54c0.308-0.644 1.063-0.659 1.597-0.388 0.473 0.24 0.755 0.925 0.369 1.551l-1.669 3.034 3.721 0.063z" fill="#fff" stroke-linejoin="round" stroke-width=".75"/>
 </g>
</svg>
